<svg width="26" height="26" viewBox="0 0 26 26" fill="none" xmlns="http://www.w3.org/2000/svg">
<g clip-path="url(#clip0_13_993)">
<path d="M24.1415 14.6035L22.1503 7.43282C21.5667 5.33212 20.2983 3.48697 18.5466 2.19066C16.795 0.894345 14.6607 0.221269 12.483 0.278416C10.3053 0.335563 8.20923 1.11965 6.52787 2.50605C4.84652 3.89245 3.67641 5.8016 3.20355 7.93002L1.66194 14.8688C1.49166 15.6356 1.49559 16.4308 1.67346 17.1957C1.85133 17.9607 2.19858 18.676 2.68959 19.2886C3.1806 19.9013 3.80282 20.3958 4.51031 20.7356C5.21781 21.0753 5.99251 21.2517 6.77723 21.2517H7.9447C8.18523 22.4373 8.82788 23.5033 9.76376 24.2689C10.6996 25.0345 11.8712 25.4528 13.0799 25.4528C14.2886 25.4528 15.4602 25.0345 16.396 24.2689C17.3319 23.5033 17.9746 22.4373 18.2151 21.2517H19.0933C19.9011 21.2518 20.698 21.0649 21.4217 20.7057C22.1454 20.3464 22.7764 19.8246 23.2652 19.1809C23.7541 18.5373 24.0877 17.7892 24.2398 16.9951C24.392 16.201 24.3588 15.3825 24.1426 14.6035H24.1415ZM13.0799 23.3496C12.432 23.3469 11.8007 23.1439 11.2724 22.7684C10.7442 22.3929 10.3447 21.8631 10.1287 21.2517H16.0311C15.8151 21.8631 15.4157 22.3929 14.8874 22.7684C14.3591 23.1439 13.7278 23.3469 13.0799 23.3496ZM21.5959 17.9108C21.3039 18.2986 20.9256 18.6128 20.4909 18.8286C20.0563 19.0444 19.5774 19.1557 19.0923 19.1538H6.77723C6.30645 19.1537 5.8417 19.0478 5.41728 18.8439C4.99286 18.64 4.61961 18.3433 4.32508 17.9757C4.03054 17.6081 3.82225 17.179 3.71556 16.7201C3.60888 16.2611 3.60653 15.7841 3.70868 15.3241L5.24924 8.38422C5.62061 6.71241 6.53965 5.21283 7.86029 4.12385C9.18093 3.03488 10.8274 2.41902 12.5378 2.37416C14.2483 2.32931 15.9247 2.85805 17.3005 3.87632C18.6763 4.89459 19.6725 6.34395 20.1308 7.99401L22.122 15.1646C22.2536 15.6318 22.2746 16.1233 22.1832 16.5999C22.0919 17.0766 21.8908 17.5255 21.5959 17.9108Z" fill="#838383"/>
</g>
<defs>
<clipPath id="clip0_13_993">
<rect width="25.152" height="25.1748" fill="white" transform="translate(0.503998 0.272736)"/>
</clipPath>
</defs>
</svg>
