<svg width="26" height="26" viewBox="0 0 26 26" fill="none" xmlns="http://www.w3.org/2000/svg">
<g clip-path="url(#clip0_22_240)">
<path d="M24.335 9.78559L16.386 1.82825C15.4021 0.846419 14.0695 0.295074 12.6802 0.295074C11.2909 0.295074 9.95832 0.846419 8.9745 1.82825L1.02542 9.78559C0.732428 10.077 0.500133 10.4237 0.342003 10.8056C0.183873 11.1875 0.103054 11.597 0.10423 12.0104V22.308C0.10423 23.1426 0.435472 23.943 1.02509 24.5331C1.6147 25.1233 2.41439 25.4548 3.24823 25.4548H22.1122C22.9461 25.4548 23.7458 25.1233 24.3354 24.5331C24.925 23.943 25.2562 23.1426 25.2562 22.308V12.0104C25.2574 11.597 25.1766 11.1875 25.0185 10.8056C24.8603 10.4237 24.628 10.077 24.335 9.78559V9.78559ZM15.8242 23.3569H9.53623V19.2303C9.53623 18.3957 9.86747 17.5953 10.4571 17.0052C11.0467 16.415 11.8464 16.0835 12.6802 16.0835C13.5141 16.0835 14.3138 16.415 14.9034 17.0052C15.493 17.5953 15.8242 18.3957 15.8242 19.2303V23.3569ZM23.1602 22.308C23.1602 22.5862 23.0498 22.853 22.8533 23.0497C22.6567 23.2464 22.3902 23.3569 22.1122 23.3569H17.9202V19.2303C17.9202 17.8394 17.3682 16.5053 16.3855 15.5217C15.4028 14.5382 14.07 13.9856 12.6802 13.9856C11.2905 13.9856 9.95768 14.5382 8.97499 15.5217C7.9923 16.5053 7.44023 17.8394 7.44023 19.2303V23.3569H3.24823C2.97028 23.3569 2.70372 23.2464 2.50718 23.0497C2.31064 22.853 2.20023 22.5862 2.20023 22.308V12.0104C2.2012 11.7324 2.31152 11.466 2.50729 11.2688L10.4564 3.31461C11.0471 2.72608 11.8467 2.39567 12.6802 2.39567C13.5137 2.39567 14.3133 2.72608 14.9041 3.31461L22.8532 11.272C23.0482 11.4684 23.1584 11.7335 23.1602 12.0104V22.308Z" fill="#838383"/>
</g>
<defs>
<clipPath id="clip0_22_240">
<rect width="25.152" height="25.1748" fill="white" transform="translate(0.104004 0.272736)"/>
</clipPath>
</defs>
</svg>
