<svg width="27" height="26" viewBox="0 0 27 26" fill="none" xmlns="http://www.w3.org/2000/svg">
<g clip-path="url(#clip0_13_992)">
<path d="M13.448 12.8601C14.6917 12.8601 15.9074 12.491 16.9414 11.7994C17.9755 11.1078 18.7814 10.1249 19.2574 8.97488C19.7333 7.82486 19.8578 6.5594 19.6152 5.33854C19.3726 4.11768 18.7737 2.99625 17.8943 2.11606C17.0149 1.23587 15.8945 0.636453 14.6747 0.393609C13.455 0.150765 12.1907 0.275402 11.0417 0.751757C9.89271 1.22811 8.91066 2.03479 8.21972 3.06979C7.52879 4.10478 7.16 5.32161 7.16 6.56638C7.16167 8.23507 7.82469 9.83493 9.00356 11.0149C10.1824 12.1948 11.7808 12.8584 13.448 12.8601ZM13.448 2.37058C14.2771 2.37058 15.0876 2.61666 15.777 3.0777C16.4663 3.53874 17.0036 4.19404 17.3209 4.96072C17.6382 5.7274 17.7212 6.57104 17.5595 7.38494C17.3977 8.19885 16.9985 8.94647 16.4122 9.53327C15.8259 10.1201 15.079 10.5197 14.2658 10.6816C13.4527 10.8435 12.6098 10.7604 11.8438 10.4428C11.0778 10.1252 10.4231 9.58744 9.96248 8.89745C9.50186 8.20745 9.256 7.39624 9.256 6.56638C9.256 5.45359 9.69766 4.38637 10.4838 3.5995C11.27 2.81264 12.3362 2.37058 13.448 2.37058Z" fill="#838383"/>
<path d="M13.448 14.9587C10.9473 14.9615 8.54987 15.957 6.78162 17.7268C5.01338 19.4967 4.01877 21.8963 4.01599 24.3992C4.01599 24.6774 4.12641 24.9442 4.32294 25.141C4.51948 25.3377 4.78604 25.4482 5.06399 25.4482C5.34194 25.4482 5.6085 25.3377 5.80504 25.141C6.00158 24.9442 6.11199 24.6774 6.11199 24.3992C6.11199 22.4518 6.88489 20.5842 8.26066 19.2072C9.63642 17.8302 11.5024 17.0566 13.448 17.0566C15.3936 17.0566 17.2596 17.8302 18.6353 19.2072C20.0111 20.5842 20.784 22.4518 20.784 24.3992C20.784 24.6774 20.8944 24.9442 21.0909 25.141C21.2875 25.3377 21.554 25.4482 21.832 25.4482C22.1099 25.4482 22.3765 25.3377 22.573 25.141C22.7696 24.9442 22.88 24.6774 22.88 24.3992C22.8772 21.8963 21.8826 19.4967 20.1144 17.7268C18.3461 15.957 15.9487 14.9615 13.448 14.9587Z" fill="#838383"/>
</g>
<defs>
<clipPath id="clip0_13_992">
<rect width="25.152" height="25.1748" fill="white" transform="translate(0.872009 0.272736)"/>
</clipPath>
</defs>
</svg>
